<?xml version="1.0" encoding="UTF-8"?> <svg xmlns="http://www.w3.org/2000/svg" id="Calque_2" data-name="Calque 2" viewBox="0 0 260.79 80.16"><defs><style> .cls-1 { fill: #fff; } </style></defs><g id="Calque_2-2" data-name="Calque 2-2"><g id="Calque_1-2" data-name="Calque 1-2"><g id="LamanuUltraCompact_CMJN" data-name="LamanuUltraCompact CMJN"><g><path class="cls-1" d="M1.2,8.66v45.6h135.82V8.66H1.2ZM89.77,13.97s-.06.02-.08.02c0,0,0-.03,0-.04.03,0,.04.02.09.03h0ZM87.13,17.4h0s.02.02.02.03c-.02,0-.04,0-.05-.02,0,0,.02,0,.03,0h0ZM21.21,48.32h-13.14V15.52h4.26v31.9h8.88v.89h0ZM34.34,48.32l-1.55-7.56h-7.75l-1.55,7.56h-1.59l6.15-32.8h4.3l6.24,32.79h-4.26ZM73.41,48.32h-4.23v-24.88l-7.87,22.28-8.49-22.28v24.88h-1.74V15.52h3.45l8.18,22.44,7.87-22.44h2.83v32.79h0ZM87.83,48.32l-1.55-7.56h-7.75l-1.55,7.56h-1.59l6.16-32.79h4.3l6.24,32.79h-4.27ZM110.78,48.98h-.54l-14.34-28.37v27.67h-1.82V15.52h3.76l11.16,22.33V15.52h1.79v33.45h0ZM130.16,41.42c0,1.76-.3,3.13-.89,4.13-.6.99-1.36,1.75-2.29,2.26-.93.52-1.95.84-3.08.97s-2.21.2-3.28.2c-4.78,0-7.17-2.1-7.17-6.31V15.52h4.3v26.55c0,.77.17,1.5.51,2.17.34.67.78,1.27,1.33,1.79.56.52,1.2.92,1.94,1.23.74.29,1.5.44,2.31.44,1.45,0,2.57-.46,3.35-1.39.79-.93,1.18-2.15,1.18-3.64V15.52h1.79v25.89h0Z"></path><polygon class="cls-1" points="78.8 39.83 85.85 39.83 82.48 19.21 78.8 39.83"></polygon><polygon class="cls-1" points="25.32 39.83 32.37 39.83 29 19.21 25.32 39.83"></polygon></g></g><g><path class="cls-1" d="M30.05,61.45h-2.48v1.54h2.38v1.15h-2.38v1.88h2.48v1.15h-3.83v-6.89h3.83v1.15h0ZM27.41,59.14l1.45-1.47.93.72-1.8,1.26-.58-.52h0Z"></path><path class="cls-1" d="M36.36,66.94c-.42.21-.96.4-1.71.4-1.21,0-1.94-.42-2.52-.96-.8-.76-1.11-1.63-1.11-2.64,0-1.25.52-2.15,1.11-2.7.69-.65,1.55-.91,2.53-.91.49,0,1.07.08,1.7.43v1.57c-.63-.72-1.41-.77-1.66-.77-1.39,0-2.28,1.14-2.28,2.41,0,1.53,1.18,2.35,2.34,2.35.64,0,1.21-.28,1.62-.75v1.57h0Z"></path><path class="cls-1" d="M44.63,63.74c0,2.1-1.51,3.6-3.68,3.6s-3.68-1.5-3.68-3.6,1.51-3.61,3.68-3.61,3.68,1.51,3.68,3.61ZM43.24,63.74c0-1.39-.95-2.39-2.29-2.39s-2.29.99-2.29,2.39.95,2.38,2.29,2.38,2.29-.99,2.29-2.38Z"></path><path class="cls-1" d="M47.21,60.29v5.74h2.13v1.15h-3.47v-6.89h1.34Z"></path><path class="cls-1" d="M54.09,61.45h-2.48v1.54h2.38v1.15h-2.38v1.88h2.48v1.15h-3.83v-6.89h3.83v1.15h0Z"></path><path class="cls-1" d="M61.19,61.86c-.4-.53-.88-.59-1.13-.59-.72,0-.95.45-.95.81,0,.17.05.32.21.46.17.15.39.24.83.39.53.19,1.04.37,1.39.69.31.28.59.75.59,1.45,0,1.34-.97,2.26-2.4,2.26-1.27,0-2.02-.77-2.38-1.31l.88-.83c.33.67.96.92,1.45.92.61,0,1.07-.37,1.07-.95,0-.25-.08-.44-.27-.62-.26-.24-.67-.37-1.07-.51-.36-.12-.8-.29-1.15-.6-.23-.2-.55-.58-.55-1.28,0-1.01.68-2.02,2.21-2.02.44,0,1.25.08,1.95.81l-.7.92h0Z"></path><path class="cls-1" d="M64.66,60.29v4.33c0,.52.18.84.33,1.02.2.24.56.48,1.09.48s.9-.24,1.09-.48c.15-.18.33-.5.33-1.02v-4.33h1.34v4.22c0,.65-.11,1.31-.52,1.84-.5.65-1.37.99-2.26.99s-1.76-.34-2.26-.99c-.42-.52-.52-1.19-.52-1.84v-4.22h1.36Z"></path><path class="cls-1" d="M72.43,60.29c.77,0,1.31.08,1.82.52.56.5.7,1.16.7,1.66,0,.27-.04,1.01-.57,1.54-.38.38-.95.61-1.75.61h-.87v2.55h-1.34v-6.89h2.01ZM71.77,63.47h.55c.26,0,.59,0,.88-.21.25-.2.37-.51.37-.81,0-.38-.19-.64-.38-.78-.28-.2-.63-.21-.95-.21h-.46v2.02h0Z"></path><path class="cls-1" d="M79.77,61.45h-2.48v1.54h2.38v1.15h-2.38v1.88h2.48v1.15h-3.83v-6.89h3.83v1.15h0ZM77.12,59.14l1.45-1.47.93.72-1.8,1.26-.58-.52h0Z"></path><path class="cls-1" d="M83.06,60.29c.95,0,1.44.25,1.76.52.52.44.68,1.03.68,1.55,0,.67-.27,1.26-.81,1.63-.18.12-.43.24-.75.3l2.15,2.9h-1.67l-1.84-2.77h-.17v2.77h-1.34v-6.89h2,0ZM82.41,63.46h.38c.26,0,1.32-.03,1.32-1.04s-1.06-1.03-1.31-1.03h-.4v2.08h0Z"></path><path class="cls-1" d="M88.35,60.29v6.89h-1.34v-6.89h1.34Z"></path><path class="cls-1" d="M93.74,61.45h-2.48v1.54h2.38v1.15h-2.38v1.88h2.48v1.15h-3.83v-6.89h3.83v1.15h0Z"></path><path class="cls-1" d="M96.38,60.29v4.33c0,.52.18.84.33,1.02.2.24.56.48,1.09.48s.9-.24,1.09-.48c.15-.18.33-.5.33-1.02v-4.33h1.34v4.22c0,.65-.11,1.31-.52,1.84-.5.65-1.37.99-2.26.99s-1.76-.34-2.26-.99c-.42-.52-.52-1.19-.52-1.84v-4.22h1.36Z"></path><path class="cls-1" d="M104.15,60.29c.95,0,1.44.25,1.76.52.52.44.68,1.03.68,1.55,0,.67-.27,1.26-.81,1.63-.18.12-.43.24-.75.3l2.15,2.9h-1.67l-1.84-2.77h-.17v2.77h-1.34v-6.89h2,0ZM103.5,63.46h.38c.26,0,1.32-.03,1.32-1.04s-1.06-1.03-1.31-1.03h-.4v2.08h0Z"></path><path class="cls-1" d="M111.91,61.45h-2.48v1.54h2.38v1.15h-2.38v1.88h2.48v1.15h-3.83v-6.89h3.83v1.15h0Z"></path><path class="cls-1" d="M3.6,72.69c.96,0,1.8.11,2.56.67.83.63,1.32,1.63,1.32,2.78s-.48,2.14-1.39,2.78c-.81.57-1.56.66-2.52.66h-1.78v-6.89s1.8,0,1.8,0ZM3.15,78.43h.42c.34,0,1.08-.02,1.69-.45.55-.39.86-1.09.86-1.83s-.3-1.43-.84-1.84c-.56-.42-1.24-.45-1.7-.45h-.42v4.57h0Z"></path><path class="cls-1" d="M12.56,73.84h-2.48v1.54h2.38v1.15h-2.38v1.88h2.48v1.15h-3.83v-6.89h3.83v1.15h0Z"></path><path class="cls-1" d="M17.25,74.26c-.4-.53-.88-.59-1.13-.59-.72,0-.95.45-.95.81,0,.17.05.32.21.46.17.15.39.24.83.39.53.19,1.04.37,1.39.69.31.28.59.75.59,1.45,0,1.34-.97,2.26-2.4,2.26-1.27,0-2.02-.77-2.38-1.31l.88-.83c.33.67.96.92,1.45.92.61,0,1.07-.37,1.07-.95,0-.25-.08-.44-.27-.62-.26-.24-.67-.37-1.07-.51-.36-.12-.8-.29-1.15-.6-.23-.2-.55-.58-.55-1.28,0-1.01.68-2.02,2.21-2.02.44,0,1.25.08,1.95.81l-.7.92h0Z"></path><path class="cls-1" d="M22.71,72.69h.97l1.83,4.38,1.91-4.38h.97l1.15,6.89h-1.37l-.62-4.25-1.85,4.25h-.45l-1.77-4.25-.7,4.25h-1.37l1.28-6.89h.02Z"></path><path class="cls-1" d="M34.6,73.84h-2.48v1.54h2.38v1.15h-2.38v1.88h2.48v1.15h-3.83v-6.89h3.83v1.15h0ZM31.95,71.54l1.45-1.47.93.72-1.8,1.26-.58-.52h0Z"></path><path class="cls-1" d="M38.28,73.84v5.74h-1.34v-5.74h-1.55v-1.15h4.44v1.15h-1.55Z"></path><path class="cls-1" d="M42.02,72.69v6.89h-1.34v-6.89h1.34Z"></path><path class="cls-1" d="M47.41,73.84h-2.48v1.54h2.38v1.15h-2.38v1.88h2.48v1.15h-3.83v-6.89h3.83v1.15h0Z"></path><path class="cls-1" d="M50.72,72.69c.95,0,1.44.25,1.76.52.52.44.68,1.03.68,1.55,0,.67-.27,1.26-.81,1.63-.18.12-.43.24-.75.3l2.15,2.9h-1.67l-1.84-2.77h-.17v2.77h-1.34v-6.89h2,0ZM50.06,75.86h.38c.26,0,1.32-.03,1.32-1.04s-1.06-1.03-1.31-1.03h-.4v2.08h0Z"></path><path class="cls-1" d="M58.04,74.26c-.4-.53-.88-.59-1.13-.59-.72,0-.95.45-.95.81,0,.17.05.32.21.46.17.15.39.24.83.39.53.19,1.04.37,1.39.69.31.28.59.75.59,1.45,0,1.34-.97,2.26-2.4,2.26-1.27,0-2.02-.77-2.38-1.31l.88-.83c.33.67.96.92,1.45.92.61,0,1.07-.37,1.07-.95,0-.25-.08-.44-.27-.62-.26-.24-.67-.37-1.07-.51-.36-.12-.8-.29-1.15-.6-.23-.2-.55-.58-.55-1.28,0-1.01.68-2.02,2.21-2.02.44,0,1.25.08,1.95.81l-.7.92h0Z"></path><path class="cls-1" d="M64.38,72.69c.96,0,1.8.11,2.56.67.83.63,1.32,1.63,1.32,2.78s-.48,2.14-1.39,2.78c-.81.57-1.56.66-2.52.66h-1.78v-6.89h1.8ZM63.92,78.43h.42c.34,0,1.08-.02,1.69-.45.55-.39.86-1.09.86-1.83s-.3-1.43-.84-1.84c-.56-.42-1.24-.45-1.7-.45h-.42v4.57h0Z"></path><path class="cls-1" d="M70.84,72.69v4.33c0,.52.18.84.33,1.02.2.24.56.48,1.09.48s.9-.24,1.09-.48c.15-.18.33-.5.33-1.02v-4.33h1.34v4.22c0,.65-.11,1.31-.52,1.84-.5.65-1.37.99-2.26.99s-1.76-.34-2.26-.99c-.42-.52-.52-1.19-.52-1.84v-4.22h1.36Z"></path><path class="cls-1" d="M79.02,79.58v-6.89h.93l4.19,4.6v-4.6h1.34v6.89h-.93l-4.19-4.61v4.61h-1.34Z"></path><path class="cls-1" d="M88.4,72.69v4.33c0,.52.18.84.33,1.02.2.24.56.48,1.09.48s.9-.24,1.09-.48c.15-.18.33-.5.33-1.02v-4.33h1.34v4.22c0,.65-.11,1.31-.52,1.84-.5.65-1.37.99-2.26.99s-1.76-.34-2.26-.99c-.42-.52-.52-1.19-.52-1.84v-4.22h1.36Z"></path><path class="cls-1" d="M95.1,72.69h.97l1.83,4.38,1.91-4.38h.97l1.15,6.89h-1.37l-.62-4.25-1.85,4.25h-.45l-1.77-4.25-.7,4.25h-1.37l1.28-6.89h.02Z"></path><path class="cls-1" d="M106.98,73.84h-2.48v1.54h2.38v1.15h-2.38v1.88h2.48v1.15h-3.83v-6.89h3.83v1.15h0ZM104.34,71.54l1.45-1.47.93.72-1.8,1.26-.58-.52h0Z"></path><path class="cls-1" d="M110.28,72.69c.95,0,1.44.25,1.76.52.52.44.68,1.03.68,1.55,0,.67-.27,1.26-.81,1.63-.18.12-.43.24-.75.3l2.15,2.9h-1.67l-1.84-2.77h-.17v2.77h-1.34v-6.89h2,0ZM109.62,75.86h.38c.26,0,1.32-.03,1.32-1.04s-1.06-1.03-1.31-1.03h-.4v2.08h0Z"></path><path class="cls-1" d="M115.56,72.69v6.89h-1.34v-6.89h1.34Z"></path><path class="cls-1" d="M122.44,79.24c-.61.36-1.2.5-1.96.5-2.17,0-3.68-1.49-3.68-3.6s1.51-3.61,3.68-3.61,3.68,1.51,3.68,3.61c0,1.29-.53,2.03-.91,2.45l1.12,1.13-1.35.13-.57-.61h0ZM122.32,77.63c.21-.29.45-.72.45-1.49,0-1.39-.95-2.39-2.29-2.39s-2.29.99-2.29,2.39.94,2.38,2.33,2.38c.46,0,.77-.11,1.02-.23l-1.4-1.37,1.39-.12.8.82h0Z"></path><path class="cls-1" d="M126.74,72.69v4.33c0,.52.18.84.33,1.02.2.24.56.48,1.09.48s.9-.24,1.09-.48c.15-.18.33-.5.33-1.02v-4.33h1.34v4.22c0,.65-.11,1.31-.52,1.84-.5.65-1.37.99-2.26.99s-1.76-.34-2.26-.99c-.42-.52-.52-1.19-.52-1.84v-4.22h1.36Z"></path><path class="cls-1" d="M136.33,73.84h-2.48v1.54h2.38v1.15h-2.38v1.88h2.48v1.15h-3.83v-6.89h3.83v1.15h0Z"></path></g></g></g><g><path class="cls-1" d="M169.17,43.82l-.46.04c-.37-.11-.64-.34-.82-.69-.28-.46-.54-.82-.78-1.08-.24-.26-.43-.53-.59-.81-.16-.29-.26-.73-.31-1.32-.11-1.24.09-3.68.61-7.33-.22.14-1.41,1.9-3.56,5.27-2.15,3.37-3.46,5.31-3.91,5.82-.23.24-.44.36-.63.38-.2.02-.36-.08-.46-.28-.31-.53-.65-1-1.02-1.41l-.25-.32c-.14-.18-.22-.44-.25-.78-.11-1.3.47-3.71,1.74-7.22.92-2.54,1.76-4.64,2.52-6.3.4-.91.61-1.46.64-1.64.05-.22.67-.38,1.88-.49.58-.05.91-.04.97.04.02.05.04.19.07.43.02.19.01.32,0,.38-.11.22-.44.76-.99,1.65-.12.21-.45.97-.99,2.28-1.53,3.74-2.45,6.6-2.78,8.57l2.87-4.42c2.88-4.41,4.64-6.72,5.26-6.95.56-.07,1.02-.14,1.36-.2.24-.05.43-.08.58-.09.31-.03.47.08.49.31.03.32-.06.91-.25,1.78-.27,1.23-.59,3.4-.98,6.52-.15,1.45-.18,2.7-.09,3.74.02.21.04.34.06.37.3-.27,1.79-3.59,4.45-9.97,2.48-5.93,3.88-9.33,4.21-10.2.04-.07.24-.15.6-.23.36-.08.73-.14,1.11-.17.72-.06,1.08-.01,1.09.16-1.58,4.11-3.44,8.62-5.6,13.55-2.81,6.41-4.74,9.95-5.78,10.62Z"></path><path class="cls-1" d="M180.05,40.04c-.2.02-.51-.02-.91-.1-.4-.09-.82-.23-1.25-.42-.43-.19-.81-.42-1.13-.69-.32-.27-.5-.58-.54-.94-.05-.88.2-1.92.74-3.13l.03-.1-.02-.08-.32.03c-.49.04-.74,0-.75-.1,0-.09.08-.26.27-.5.08-.1.23-.3.42-.61.38-.63.63-.99.78-1.07l.65-.25c.17-.07.65-.92,1.45-2.54.04-.05.11-.19.22-.41v-.03c-.25.07-.37.17-.36.3,0,.06-.03.09-.09.09-.19,0-.67-.14-1.44-.42-.86-.31-1.3-.56-1.33-.77,0-.06.03-.11.1-.15,1.23-.73,2.64-1.32,4.24-1.77,1.8-.51,3.37-.83,4.72-.95,1.69-.15,2.56,0,2.62.46,0,.22,0,.42.03.63.04.32.09.59.14.84.06.24.1.47.12.69.03.34-.08.53-.33.55-.33.03-1-.2-2.01-.68-.06-.03-.16-.04-.3-.03-.2.02-.45.05-.73.11-.38.07-.9.15-1.57.25-.47.06-.7.17-.69.33,0,.06.03.13.07.23.04.09.07.24.09.45.01.15,0,.33-.06.55-.04.16-.08.25-.12.26-.03,0-.06,0-.11-.03-.04-.02-.1-.04-.18-.05-.05,0-.14.13-.28.38-.11.2-.19.34-.23.43,0,.02.05.02.16.01.23-.05.41-.08.53-.09.2-.02.36.03.47.13.11.11.21.26.31.47.2.36.48.72.83,1.11.17.18.25.32.26.41,0,.09-.15.16-.46.19h-.25c-.57.07-1.13.13-1.68.19s-.99.19-1.31.38c-.33.19-.62.58-.89,1.17-.27.59-.58,1.48-.92,2.69v.06c.02.14.15.2.39.18.17-.01.3-.05.4-.12,1.32-.99,2.21-1.65,2.66-1.97.33-.23.56-.34.71-.36.14-.01.23.12.26.4.06.73.14,1.26.22,1.57l.03.19c0,.08-.01.16-.06.24-.11.17-.72.65-1.85,1.45-.75.54-1.32.87-1.73.97Z"></path><path class="cls-1" d="M200.1,41.22s-.1-.04-.18-.14c-.79-.72-1.28-1.19-1.45-1.4-.17-.22-.27-.48-.3-.79-.02-.26-.01-.61.03-1.06.02-.26.04-.57.06-.93l-.03-.03c-1.06,1.23-1.94,1.87-2.64,1.93-.35.03-.69-.09-1-.38-.84-.76-1.42-1.33-1.74-1.72s-.5-.87-.55-1.45c-.06-.63.09-1.48.44-2.54.69-2.03,1.59-3.76,2.7-5.19,1.11-1.43,2.25-2.55,3.44-3.35,1.12-.74,2.09-1.15,2.91-1.22,1.16-.1,1.79.37,1.88,1.41.06.64-.1,1.46-.49,2.47-.26.74-.41,1.3-.46,1.66-.03.27-.08.41-.15.42-.03,0-.06-.01-.1-.05-1.19-1.08-1.8-1.78-1.83-2.1-.01-.16.02-.31.09-.46l.04-.17c-.1,0-.28.12-.53.34-.5.44-.9.81-1.19,1.13-2,2.17-3.27,4.18-3.8,6.03-.23.81-.32,1.43-.29,1.86.02.28.1.42.22.43.14-.01.73-.63,1.76-1.87.73-.88,1.09-1.35,1.1-1.43-.04-.02-.09-.02-.16-.03-.12.01-.27.03-.44.07-.17.03-.32.06-.45.07-.14,0-.22-.02-.23-.08,0-.03.19-.44.54-1.24.17-.38.31-.66.43-.83.11-.17.26-.3.45-.38.19-.08.49-.16.89-.25.29-.07.66-.17,1.11-.29,1.05-.34,2.36-.6,3.93-.78.36-.01.63.09.79.32.16.23.35.62.57,1.17.28.67.43,1.02.43,1.06,0,.05-.02.07-.08.08s-.14,0-.25-.01c-.11-.01-.33-.01-.67,0-.44.06-1.03.13-1.79.21-.76.08-1.18.14-1.27.17-.09.03-.15.09-.18.18-.62,2.72-.9,4.78-.84,6.18,0,.36-.02.61-.06.74-.32.89-.5,1.5-.54,1.83-.02.26-.07.39-.13.39Z"></path><path class="cls-1" d="M203.96,39.23c-.09,0-.31-.35-.64-1.06-.33-.71-.51-1.2-.54-1.46.48-1.81.76-2.85.85-3.12.07-.22.11-.37.1-.44-.01-.06-.07-.12-.16-.18-.39-.27-.59-.46-.6-.59,0-.08.04-.18.13-.28.46-.48.8-.75,1.02-.82.1-.03.17-.09.21-.19.04-.1.16-.41.36-.92.62-1.6.99-2.52,1.12-2.77.04-.07.06-.13.06-.17,0-.06-.37-.36-1.09-.9-.05-.03-.17-.13-.36-.31-.03-.02-.05-.05-.05-.09-.02-.21.36-.52,1.15-.92.78-.4,1.74-.79,2.87-1.16,1.46-.47,2.71-.76,3.75-.85,1.24-.11,1.91.1,2.02.62.05.32.08.62.11.9.04.51.04.98,0,1.42s-.26.89-.63,1.35c-.37.47-.94.99-1.7,1.57-.76.58-1.84,1.34-3.21,2.3-.14.11-.23.17-.27.18-.11.07-.21.15-.3.25l1.9-.11c.91-.07,1.68-.1,2.29-.1.62,0,1.1.09,1.44.26.34.17.54.53.58,1.07.04.45-.03,1.04-.2,1.79-.01.06-.05.12-.12.19-.06.07-.14.1-.24.11-.09,0-.21-.05-.34-.17-.09-.08-.19-.15-.3-.2-.23-.11-.77-.15-1.6-.11-1.8.04-3.12.05-3.94.05-.66,0-1.13,0-1.43.03-.25.02-.4.08-.45.17-.05.09-.22.71-.51,1.86,0,.21-.1.51-.27.91-.4.97-.74,1.61-1.02,1.93ZM207.72,28.76l.95-.72c.92-.61,1.79-1.3,2.6-2.07-.02-.02-.04-.02-.07-.02-1.3.25-2.07.42-2.31.54-.17.08-.28.19-.34.32-.58,1.12-.86,1.75-.85,1.89l.02.05Z"></path><path class="cls-1" d="M215.13,37.42c-.39.03-.74-.01-1.05-.15-.69-.3-1.08-1-1.18-2.1-.07-.84,0-1.83.21-2.98.21-1.15.53-2.34.94-3.55.41-1.22.89-2.35,1.44-3.4.54-1.05,1.12-1.92,1.73-2.61.61-.69,1.21-1.05,1.79-1.1.3-.03.58.04.86.21.86.49,1.52.9,1.98,1.25.46.34.76.74.9,1.18.13,1.47.05,2.86-.24,4.17s-.71,2.51-1.26,3.6c-.56,1.09-1.19,2.03-1.89,2.83-.71.8-1.43,1.43-2.17,1.89-.74.46-1.42.71-2.05.77ZM215.69,34.51c.32-.03.79-.47,1.42-1.32.63-.85,1.24-1.91,1.84-3.17.6-1.27,1.05-2.57,1.36-3.9,0-.04,0-.09,0-.15-.01-.16-.06-.38-.14-.66-.08-.28-.17-.54-.28-.76-.1-.22-.19-.33-.27-.33l-.04.02c-.31.3-.46.5-.45.62,0,.06.08.13.21.19.21.1.32.28.34.52,0,.1,0,.17-.04.21-.03.04-.25.13-.64.27-.43.13-.67.21-.72.25-.06,0-.14.1-.26.29-.17.27-.26.44-.25.53,0,.07.03.13.07.18.04.06.07.1.07.13-.02.06-.05.09-.08.09h-.1c-.1,0-.22.12-.35.33-.17.26-.42.82-.77,1.7-.89,2.32-1.31,3.85-1.24,4.57.03.29.13.42.3.41Z"></path><path class="cls-1" d="M232.14,35.29c-.79.07-1.44.1-1.94.11-.51,0-.89-.08-1.15-.26-.26-.17-.41-.49-.45-.94-.04-1.21.07-2.54.33-3.97.06-.28.09-.47.08-.57-1.36,1.66-2.33,2.95-2.89,3.89-.44.71-.83,1.25-1.17,1.6-.33.36-.8.56-1.39.61-.47.04-1.06,0-1.8-.14-.14-.03-.23-.19-.25-.45-.05-.54.1-1.42.44-2.64.34-1.22.76-2.52,1.25-3.88.49-1.36.95-2.57,1.38-3.61.43-1.04.74-1.69.91-1.94.28-.39.52-.71.7-.97s.33-.45.43-.59c.11-.13.2-.2.27-.21.1,0,.24.16.42.51.16.31.43.74.8,1.29.08.12.12.28.14.47.02.21.01.41-.02.59,0,.08-.02.15-.04.19-.03.04-.08.06-.18.07h-.27c-.16,0-.59,1.02-1.31,3.02-.71,2-1.07,3.04-1.06,3.13,2.4-3.16,4.27-5.49,5.6-6.99.14-.18.25-.27.33-.28.09,0,.2.12.31.39.25.51.53.96.83,1.33.1.14.15.25.15.32,0,.08-.03.35-.13.78-.16.6-.46,2.28-.89,5.02l-.12.92c.35-.03,1.58-3.52,3.68-10.47v-.03s.01-.02.01-.02l.06-.23s.01-.02.01-.03,0-.03.02-.05c.01-.02.02-.05.03-.09s.02-.06.03-.08c.01-.02.02-.04.02-.06,0-.02,0-.04.02-.06.01-.02.02-.05.02-.08,0-.03.01-.07.03-.1.02-.03.02-.06.03-.08,0-.02,0-.04.01-.07.1-.3.15-.48.16-.55,0,0,.01,0,.01-.02.32-.43.57-.79.76-1.06.38-.57.62-.86.73-.86.09,0,.21.14.35.43.2.42.51.91.93,1.45l.02.25c-.08.37-.27,1.04-.57,2-1.12,3.66-2.14,6.6-3.05,8.8-1.14,2.74-2.02,4.14-2.64,4.19Z"></path><path class="cls-1" d="M178.23,67.47l-.46.04c-.37-.11-.64-.34-.82-.69-.28-.46-.54-.82-.78-1.08-.24-.25-.43-.53-.59-.81-.16-.29-.26-.73-.31-1.32-.11-1.24.09-3.68.61-7.33-.22.14-1.41,1.9-3.56,5.27-2.15,3.37-3.46,5.31-3.91,5.82-.23.24-.44.36-.63.38-.2.02-.36-.08-.46-.28-.31-.53-.65-1-1.02-1.41l-.25-.32c-.14-.18-.22-.43-.25-.78-.11-1.3.47-3.71,1.74-7.22.92-2.54,1.76-4.64,2.52-6.3.4-.91.61-1.46.64-1.64.05-.22.67-.38,1.88-.49.58-.05.91-.04.97.04.02.05.04.19.07.43.02.2.01.32,0,.38-.11.22-.44.76-.99,1.65-.12.21-.45.97-.99,2.28-1.53,3.74-2.45,6.59-2.77,8.57l2.87-4.42c2.88-4.41,4.64-6.72,5.26-6.95.56-.07,1.02-.14,1.36-.2.24-.05.43-.08.58-.09.31-.03.47.08.49.31.03.32-.06.91-.25,1.78-.27,1.23-.59,3.4-.97,6.52-.15,1.45-.19,2.7-.09,3.74.02.21.04.34.06.37.3-.27,1.79-3.59,4.45-9.97,2.48-5.93,3.88-9.33,4.21-10.2.04-.07.24-.15.6-.23.36-.08.73-.14,1.11-.17.72-.06,1.08-.01,1.1.16-1.58,4.11-3.44,8.62-5.6,13.55-2.81,6.41-4.74,9.94-5.78,10.62Z"></path><path class="cls-1" d="M189.11,63.69c-.2.02-.51-.02-.91-.1-.4-.09-.82-.23-1.25-.42-.43-.19-.81-.42-1.13-.69-.32-.27-.5-.58-.54-.94-.05-.88.2-1.92.74-3.13l.03-.1-.02-.08-.32.03c-.49.04-.74,0-.75-.1,0-.09.08-.26.27-.5.08-.1.23-.31.42-.61.37-.63.64-.99.78-1.07l.65-.25c.17-.07.65-.92,1.45-2.54.04-.05.11-.19.22-.41v-.03c-.25.07-.37.17-.36.3,0,.06-.03.09-.09.09-.19,0-.67-.14-1.44-.42-.86-.31-1.3-.56-1.33-.77,0-.06.03-.11.1-.15,1.23-.72,2.64-1.32,4.24-1.78,1.8-.51,3.37-.83,4.72-.95,1.69-.15,2.57,0,2.62.46,0,.22,0,.43.03.63.04.31.09.59.14.84.06.24.1.47.12.68.03.34-.08.53-.33.55-.33.03-1-.2-2.01-.68-.06-.03-.16-.04-.3-.03-.2.02-.45.05-.74.11-.38.07-.9.15-1.56.25-.47.06-.7.17-.69.33,0,.06.03.13.07.23.04.1.07.24.09.45.01.15,0,.33-.06.55-.04.16-.08.25-.12.26-.03,0-.06,0-.11-.03-.04-.02-.1-.04-.18-.05-.05,0-.14.13-.28.37-.11.2-.19.34-.23.43,0,.02.05.02.16.01.23-.05.4-.08.53-.09.2-.02.36.03.47.13.11.11.21.26.31.47.2.36.48.73.83,1.11.17.18.25.32.26.41,0,.09-.15.16-.46.2h-.25c-.57.07-1.12.13-1.68.19-.55.06-.99.19-1.31.38-.32.19-.62.58-.89,1.17-.27.59-.58,1.48-.92,2.69v.06c.02.14.15.2.39.18.17-.01.3-.05.4-.12,1.32-.99,2.21-1.65,2.66-1.97.33-.23.56-.34.71-.36.14-.01.23.12.26.4.06.73.14,1.26.22,1.57l.03.19c0,.08-.01.16-.06.24-.11.17-.72.65-1.85,1.45-.75.54-1.32.87-1.73.97Z"></path><path class="cls-1" d="M205.81,62.32c-.27.02-.53,0-.77-.09-.29-.1-.69-.25-1.21-.47-1.32-.54-2.04-1.52-2.17-2.93-.1-1.09.13-2.29.66-3.6.54-1.32,1.23-2.57,2.09-3.77.85-1.2,1.75-2.2,2.69-3.01.94-.81,1.76-1.24,2.46-1.3.51-.04.83.14.96.55.08.27.14.63.18,1.08.03.35.07.69.12,1.01l.08.72c.03.4.02.81-.04,1.24-.06.43-.25.86-.58,1.3,0,.01-.03.02-.07.02-.25.02-.81-.17-1.68-.57-.54-.23-.81-.4-.82-.49,0-.08.05-.2.17-.35.18-.23.3-.54.37-.93-.62.62-1.23,1.5-1.84,2.64-.61,1.13-1.11,2.26-1.52,3.38-.4,1.12-.58,1.92-.54,2.4.01.13.04.23.1.29.27.32.52.47.76.45.08,0,.16-.05.23-.12,1.49-1.51,2.36-2.58,2.61-3.23.04-.11.09-.2.14-.28.08-.13.41-.36.99-.69.8-.46,1.27-.72,1.41-.78.05,0,.07.03.08.11l.05.78c.05.54.11.88.17,1.04.03.11.05.2.05.28.01.15-.07.35-.24.61-.92,1.31-1.71,2.32-2.37,3.04-.98,1.06-1.82,1.62-2.52,1.68Z"></path><path class="cls-1" d="M211.44,63.02c-.09,0-.31-.35-.64-1.06-.33-.71-.51-1.2-.53-1.46.48-1.81.76-2.85.85-3.12.07-.22.11-.37.1-.44-.01-.06-.07-.12-.16-.18-.39-.27-.59-.46-.6-.59,0-.08.04-.18.13-.28.46-.48.8-.75,1.02-.82.1-.03.17-.09.22-.19.04-.1.16-.41.36-.92.62-1.6.99-2.52,1.12-2.77.04-.07.06-.13.05-.17,0-.06-.37-.36-1.09-.9-.05-.03-.17-.13-.36-.31-.03-.02-.05-.05-.05-.09-.02-.21.36-.52,1.15-.92.78-.4,1.74-.79,2.87-1.16,1.46-.47,2.7-.76,3.74-.85,1.24-.11,1.91.1,2.02.62.05.32.08.62.11.9.04.51.04.98,0,1.42-.05.43-.26.89-.63,1.35-.37.47-.94.99-1.7,1.57-.76.58-1.83,1.34-3.21,2.3-.14.11-.23.17-.27.18-.11.07-.21.15-.3.25l1.9-.11c.91-.07,1.68-.1,2.29-.1.62,0,1.1.09,1.44.26s.54.53.58,1.07c.04.45-.03,1.04-.19,1.79-.01.06-.05.12-.12.19-.06.07-.14.1-.24.11-.09,0-.21-.05-.34-.17-.09-.09-.19-.15-.3-.2-.23-.11-.77-.15-1.6-.11-1.8.04-3.12.05-3.94.05-.66,0-1.13,0-1.43.03-.25.02-.4.08-.45.17-.05.09-.22.71-.51,1.86-.01.21-.1.51-.27.91-.4.97-.74,1.62-1.03,1.93ZM215.2,52.55l.95-.71c.92-.61,1.79-1.3,2.6-2.07-.02-.02-.04-.02-.07-.02-1.3.24-2.07.42-2.31.54-.17.08-.28.19-.34.32-.58,1.12-.86,1.75-.85,1.89l.02.05Z"></path><path class="cls-1" d="M224.73,60.58c-.2.02-.51-.02-.91-.1-.4-.09-.82-.23-1.25-.42-.43-.19-.81-.42-1.13-.69-.32-.27-.5-.58-.54-.94-.05-.88.2-1.92.74-3.13l.03-.1-.02-.08-.32.03c-.49.04-.74,0-.75-.1,0-.09.08-.26.27-.5.08-.1.23-.31.42-.61.37-.63.63-.99.78-1.07l.65-.25c.17-.07.65-.92,1.45-2.54.04-.05.11-.19.22-.41v-.03c-.25.07-.37.17-.36.3,0,.06-.03.09-.09.09-.19,0-.67-.14-1.44-.42-.86-.31-1.3-.56-1.33-.77,0-.06.03-.11.1-.15,1.23-.72,2.64-1.32,4.24-1.78,1.8-.51,3.37-.83,4.72-.95,1.69-.15,2.57,0,2.62.46,0,.22,0,.43.03.63.04.31.09.59.14.84.06.24.1.47.12.68.03.34-.08.53-.33.55-.33.03-.99-.2-2.01-.68-.06-.03-.16-.04-.3-.03-.2.02-.45.05-.74.11-.38.07-.9.15-1.56.25-.47.06-.7.17-.69.33,0,.06.03.13.07.23.04.09.07.24.09.45.01.15,0,.33-.06.55-.04.16-.08.25-.12.26-.03,0-.06,0-.11-.03-.04-.02-.1-.04-.18-.05-.05,0-.14.13-.28.37-.11.2-.19.34-.23.43,0,.02.05.02.16.01.23-.05.4-.08.53-.09.2-.02.36.03.47.13.11.11.21.26.32.47.2.36.47.73.83,1.11.17.18.25.32.26.41,0,.09-.15.16-.46.2h-.25c-.57.07-1.12.13-1.68.19-.55.06-.99.19-1.31.38-.32.19-.62.58-.89,1.17-.27.59-.58,1.48-.92,2.69v.06c.02.14.15.2.39.18.17-.01.3-.05.4-.12,1.32-.99,2.21-1.65,2.66-1.97.33-.23.57-.34.71-.36.14-.01.23.12.26.4.06.73.14,1.26.22,1.57l.03.19c0,.08-.01.16-.06.24-.11.17-.72.65-1.85,1.45-.75.54-1.32.87-1.73.97Z"></path><path class="cls-1" d="M237.37,60.46c-.09,0-.17-.1-.24-.33-.35-1.11-.6-2.22-.74-3.32-.02-.31-.02-.69-.01-1.14,0-.26-.01-.47-.03-.62-.06.04-.11.07-.15.07-.06,0-.11-.04-.17-.11-.14-.15-.3-.22-.48-.22-.11,0-.24,0-.39.02-.49.04-1.17.16-2.03.35-.08.02-.14.05-.17.11-.03.05-.13.36-.3.9-.02.04-.02.07-.02.1,0,.07.07.12.18.15.11.02.17.06.18.1,0,.08-.15.27-.47.56-.11.1-.26.25-.45.45-.6.65-.99.99-1.18,1-.06,0-.1-.02-.12-.07-.3-.72-.47-1.3-.52-1.74-.05-.44-.14-.65-.27-.65-.13,0-.2-.01-.2-.04l-.02-.18c0-.28-.02-.52-.03-.71-.03-.31-.08-.62-.15-.93-.03-.11-.05-.2-.05-.28-.01-.13.03-.22.12-.28l1.08-.32c2.49-5.53,4.58-8.85,6.29-9.97.09-.06.18-.1.27-.11.15-.01.52.11,1.11.38l.99.43c.43.15.66.48.7.98.04.49-.05,1.27-.29,2.34-.57,2.61-.91,5.83-1.02,9.65l.02.41c.03.29.08.59.16.9.03.12.05.23.06.32.01.15-.02.26-.1.33-.52.44-.89.8-1.11,1.08-.19.25-.34.38-.44.39ZM236.33,52.7c.08,0,.15-.12.19-.33.04-.21.1-.61.18-1.21.09-.83.28-2.21.58-4.15,0-.03,0-.05-.02-.06-.01-.01-.02-.02-.02-.03-1.26,1.73-2.35,3.6-3.26,5.59l.79-.11c.52-.05.94.02,1.27.2.12.07.22.11.29.1Z"></path><path class="cls-1" d="M243.03,59.33s-.08,0-.13-.02c-.41-.23-1.01-.47-1.79-.73-.05,0-.08-.06-.08-.16-.04-.41.17-1.48.62-3.2.45-1.72.91-3.26,1.39-4.6.48-1.34.88-2.38,1.22-3.11.02-.04.03-.09.04-.16-.24.03-1.02.24-2.33.62l-.81.21c-.08,0-.17-.01-.26-.06-.16-.09-.58-.45-1.26-1.08-.4-.35-.6-.54-.6-.58,0-.06.08-.11.25-.16.17-.05.43-.16.77-.33.99-.51,3.13-1.16,6.43-1.97,1.63-.4,2.83-.64,3.6-.71.47-.04.74,0,.81.11,0,.32-.03.8-.07,1.45-.07,1.02-.25,1.55-.55,1.59-.1,0-.21-.05-.34-.17-.07-.08-.19-.11-.35-.1-.18.02-.43.06-.75.12-.08.03-.38.09-.89.19-.51.1-.79.17-.82.22-.04.05-.05.1-.05.18-.01.18-.08.4-.2.66-1.5,3.23-2.61,6.65-3.33,10.26-.11.49-.2.86-.27,1.11-.07.25-.16.39-.27.4Z"></path><path class="cls-1" d="M252.04,58.19c-.2.02-.51-.02-.91-.1-.4-.09-.82-.22-1.25-.42-.43-.19-.81-.42-1.13-.69-.32-.27-.5-.58-.54-.94-.05-.88.2-1.92.74-3.13l.03-.1-.02-.08-.32.03c-.49.04-.74,0-.75-.1,0-.09.08-.26.27-.5.08-.1.23-.31.42-.61.37-.63.63-.99.78-1.07l.65-.25c.17-.07.65-.92,1.45-2.54.04-.05.12-.19.22-.41v-.03c-.25.07-.37.17-.36.3,0,.06-.03.09-.09.09-.19,0-.67-.14-1.44-.42-.86-.31-1.3-.56-1.33-.77,0-.06.03-.11.1-.15,1.23-.72,2.64-1.32,4.24-1.77,1.8-.51,3.37-.83,4.72-.95,1.69-.15,2.57,0,2.62.46,0,.22,0,.43.03.63.04.31.09.59.14.84.06.24.1.47.12.68.03.34-.08.53-.33.55-.33.03-1-.2-2.01-.68-.06-.03-.16-.04-.3-.03-.2.02-.45.05-.74.11-.38.07-.9.15-1.56.25-.47.06-.7.17-.69.33,0,.06.03.13.07.23.04.1.07.24.09.45.01.15,0,.33-.06.55-.04.16-.08.25-.12.26-.03,0-.06,0-.11-.03-.04-.02-.1-.04-.18-.05-.05,0-.14.13-.28.38-.11.2-.19.34-.23.43,0,.02.05.02.16.01.23-.05.4-.08.53-.09.2-.02.36.03.47.13.11.11.21.26.32.47.2.36.47.73.83,1.11.17.18.25.32.26.41,0,.09-.14.16-.46.2h-.25c-.57.07-1.12.13-1.68.19-.55.06-.99.19-1.31.38-.32.19-.62.58-.89,1.17-.27.59-.58,1.49-.92,2.69v.06c.02.14.15.2.39.18.17-.01.3-.05.4-.12,1.32-.99,2.21-1.65,2.66-1.97.33-.23.57-.34.71-.36.14-.01.23.12.26.4.06.73.14,1.26.22,1.57l.03.19c0,.08-.01.16-.06.24-.11.17-.72.65-1.85,1.45-.75.54-1.32.86-1.73.96Z"></path></g></svg> 